<?xml version="1.0" standalone="no"?>
<!DOCTYPE svg PUBLIC "-//W3C//DTD SVG 20010904//EN"
 "http://www.w3.org/TR/2001/REC-SVG-20010904/DTD/svg10.dtd">
<svg version="1.0" xmlns="http://www.w3.org/2000/svg"
 width="600.000000pt" height="600.000000pt" viewBox="0 0 600.000000 600.000000"
 preserveAspectRatio="xMidYMid meet">
<metadata>
Created by potrace 1.14, written by Peter Selinger 2001-2017
</metadata>
<g transform="translate(0.000000,600.000000) scale(0.100000,-0.100000)"
fill="#000000" stroke="none">
<path d="M1823 5933 c-4 -1 -78 -4 -163 -7 -184 -7 -175 -6 -225 -16 -22 -5
-59 -11 -83 -15 -67 -10 -231 -59 -292 -88 -112 -53 -206 -124 -340 -257 -231
-230 -408 -507 -545 -854 -48 -122 -178 -507 -172 -512 3 -4 90 -7 143 -5 l41
1 93 143 c219 336 414 533 618 624 125 56 311 97 489 109 125 8 294 12 310 6
8 -3 11 -21 8 -55 -2 -29 -7 -86 -10 -127 -3 -41 -8 -95 -10 -120 -4 -43 -10
-127 -20 -275 -11 -158 -23 -324 -30 -410 -3 -38 -8 -97 -10 -130 -6 -86 -16
-213 -20 -265 -2 -25 -7 -85 -10 -135 -3 -49 -8 -110 -10 -135 -2 -25 -7 -88
-10 -140 -4 -52 -8 -106 -10 -120 -2 -14 -6 -54 -10 -90 -4 -36 -8 -76 -10
-90 -4 -28 -14 -100 -21 -145 -9 -61 -45 -263 -65 -360 -10 -55 -21 -109 -23
-121 -2 -11 -11 -49 -20 -85 -9 -35 -18 -73 -20 -84 -6 -27 -83 -265 -95 -290
-55 -122 -120 -250 -147 -293 -19 -29 -34 -54 -34 -57 0 -5 -62 -96 -205 -300
-182 -261 -233 -351 -265 -469 -41 -148 -29 -314 31 -427 70 -131 217 -237
368 -267 63 -12 213 -5 259 12 82 30 202 109 272 181 276 280 467 654 670
1315 59 192 154 605 176 760 5 43 13 88 18 116 2 12 7 45 11 75 3 30 8 61 10
69 4 16 12 83 20 170 3 30 7 71 10 90 3 19 7 71 10 115 3 44 8 105 10 135 3
30 7 96 10 145 6 114 15 255 20 320 13 172 17 214 20 245 2 19 6 76 10 125 4
50 9 97 10 105 2 8 6 53 9 100 4 47 9 96 11 110 2 14 7 57 10 95 3 39 8 84 10
100 2 17 6 68 10 115 4 47 9 94 11 105 10 50 14 284 5 309 l-11 26 379 0 378
0 -3 -62 c-8 -214 -15 -531 -19 -933 -3 -253 -7 -539 -11 -635 -3 -96 -7 -220
-9 -275 -2 -55 -6 -185 -11 -290 -13 -340 -8 -913 11 -1210 11 -166 23 -261
46 -368 55 -252 165 -479 336 -693 194 -243 383 -360 734 -449 109 -29 276
-38 399 -23 219 28 494 201 686 433 161 194 270 444 354 815 34 150 80 392 80
420 0 8 -177 7 -186 -2 -5 -5 -25 -86 -38 -149 -14 -71 -56 -165 -106 -239
-168 -244 -490 -337 -810 -233 -243 79 -397 246 -485 523 -14 47 -31 108 -36
135 -30 147 -32 1057 -4 1590 9 188 30 461 50 655 3 30 7 80 10 110 3 30 7 75
10 100 3 25 8 64 10 88 3 23 7 61 10 85 3 23 7 65 10 92 7 57 14 118 20 155 2
14 7 49 10 79 4 30 8 63 10 73 2 11 7 49 11 86 5 60 17 87 34 77 3 -2 68 -6
145 -9 138 -6 220 -10 425 -21 58 -3 152 -8 210 -10 168 -7 460 -22 608 -30
l92 -6 1 193 c0 106 2 343 4 525 l4 333 -2084 -2 c-1146 -2 -2088 -4 -2092 -5z"/>
</g>
</svg>
